<svg data-v-fde0c5aa="" xmlns="http://www.w3.org/2000/svg" viewBox="0 0 300 300" class="iconLeft"><!----><defs data-v-fde0c5aa=""><!----></defs><rect data-v-fde0c5aa="" fill="#EFDDE3" x="0" y="0" width="300px" height="300px" class="logo-background-square"></rect><defs data-v-fde0c5aa=""><!----></defs><g data-v-fde0c5aa="" id="e82c4505-0f6b-49af-8c39-b3185124052a" fill="#38151C" transform="matrix(2.346579857749729,0,0,2.346579857749729,87.10399676355121,130.04233804129382)"><path d="M1.11 12.29L1.11 2.69L8.50 2.69L8.50 3.85L2.44 3.85L2.44 6.80L7.88 6.80L7.88 7.97L2.44 7.97L2.44 11.13L8.58 11.13L8.58 12.29L1.11 12.29ZM9.79 9.20L9.79 7.83L13.57 7.83L13.57 9.20L9.79 9.20ZM19.33 12.46L19.33 12.46Q17.01 12.46 15.83 11.22L15.83 11.22L15.83 11.22Q14.66 9.98 14.66 7.49L14.66 7.49L14.66 7.49Q14.66 5.00 15.83 3.76L15.83 3.76L15.83 3.76Q17.01 2.52 19.33 2.52L19.33 2.52L19.33 2.52Q21.21 2.52 22.34 3.45L22.34 3.45L22.34 3.45Q23.46 4.38 23.46 6.16L23.46 6.16L22.11 6.16L22.11 6.16Q22.11 4.93 21.37 4.29L21.37 4.29L21.37 4.29Q20.64 3.65 19.33 3.65L19.33 3.65L19.33 3.65Q17.64 3.65 16.84 4.55L16.84 4.55L16.84 4.55Q16.04 5.45 16.03 7.46L16.03 7.46L16.03 7.49L16.03 7.49Q16.03 9.52 16.83 10.42L16.83 10.42L16.83 10.42Q17.63 11.33 19.33 11.33L19.33 11.33L19.33 11.33Q20.66 11.33 21.41 10.70L21.41 10.70L21.41 10.70Q22.16 10.07 22.16 8.85L22.16 8.85L23.46 8.85L23.46 8.85Q23.46 10.64 22.34 11.55L22.34 11.55L22.34 11.55Q21.22 12.46 19.33 12.46L19.33 12.46ZM25.21 12.29L25.21 2.69L26.54 2.69L26.54 11.13L31.47 11.13L31.47 12.29L25.21 12.29ZM35.78 12.46L35.78 12.46Q34.09 12.46 33.24 11.52L33.24 11.52L33.24 11.52Q32.38 10.57 32.38 8.61L32.38 8.61L32.38 8.61Q32.38 6.65 33.24 5.71L33.24 5.71L33.24 5.71Q34.09 4.76 35.78 4.76L35.78 4.76L35.78 4.76Q37.48 4.76 38.33 5.71L38.33 5.71L38.33 5.71Q39.19 6.65 39.19 8.61L39.19 8.61L39.19 8.61Q39.19 10.57 38.33 11.52L38.33 11.52L38.33 11.52Q37.48 12.46 35.78 12.46L35.78 12.46ZM35.78 11.44L35.78 11.44Q36.90 11.44 37.41 10.79L37.41 10.79L37.41 10.79Q37.91 10.14 37.91 8.67L37.91 8.67L37.91 8.55L37.91 8.55Q37.91 7.08 37.41 6.43L37.41 6.43L37.41 6.43Q36.90 5.78 35.78 5.78L35.78 5.78L35.78 5.78Q34.66 5.78 34.16 6.43L34.16 6.43L34.16 6.43Q33.66 7.08 33.66 8.55L33.66 8.55L33.66 8.67L33.66 8.67Q33.66 10.14 34.16 10.79L34.16 10.79L34.16 10.79Q34.66 11.44 35.78 11.44L35.78 11.44ZM42.87 12.46L42.87 12.46Q41.76 12.46 41.17 11.87L41.17 11.87L41.17 11.87Q40.57 11.27 40.57 9.95L40.57 9.95L40.57 4.93L41.80 4.93L41.80 9.87L41.80 9.87Q41.80 10.75 42.20 11.09L42.20 11.09L42.20 11.09Q42.59 11.44 43.33 11.44L43.33 11.44L43.33 11.44Q43.86 11.44 44.31 11.18L44.31 11.18L44.31 11.18Q44.76 10.92 45.02 10.43L45.02 10.43L45.02 10.43Q45.29 9.94 45.29 9.28L45.29 9.28L45.29 4.93L46.52 4.93L46.52 12.29L45.58 12.29L45.44 11.30L45.35 11.30L45.35 11.30Q44.53 12.46 42.87 12.46L42.87 12.46ZM50.86 12.46L50.86 12.46Q49.46 12.46 48.71 11.52L48.71 11.52L48.71 11.52Q47.95 10.58 47.95 8.61L47.95 8.61L47.95 8.61Q47.95 6.68 48.70 5.72L48.70 5.72L48.70 5.72Q49.45 4.76 50.75 4.76L50.75 4.76L50.75 4.76Q51.53 4.76 52.08 5.00L52.08 5.00L52.08 5.00Q52.63 5.24 52.99 5.77L52.99 5.77L53.07 5.77L53.07 2.17L54.31 2.17L54.31 12.29L53.38 12.29L53.23 11.30L53.14 11.30L53.14 11.30Q52.78 11.87 52.19 12.17L52.19 12.17L52.19 12.17Q51.59 12.46 50.86 12.46L50.86 12.46ZM51.17 11.44L51.17 11.44Q52.16 11.44 52.62 10.74L52.62 10.74L52.62 10.74Q53.07 10.04 53.07 8.67L53.07 8.67L53.07 8.61L53.07 8.61Q53.07 7.21 52.61 6.50L52.61 6.50L52.61 6.50Q52.15 5.78 51.17 5.78L51.17 5.78L51.17 5.78Q50.47 5.78 50.04 6.05L50.04 6.05L50.04 6.05Q49.62 6.33 49.42 6.94L49.42 6.94L49.42 6.94Q49.22 7.56 49.22 8.61L49.22 8.61L49.22 8.67L49.22 8.67Q49.22 9.70 49.42 10.30L49.42 10.30L49.42 10.30Q49.62 10.91 50.04 11.17L50.04 11.17L50.04 11.17Q50.46 11.44 51.17 11.44L51.17 11.44ZM56.18 3.54L56.18 2.17L57.41 2.17L57.41 3.54L56.18 3.54ZM56.18 12.29L56.18 4.93L57.41 4.93L57.41 12.29L56.18 12.29ZM59.29 12.29L59.29 4.93L60.23 4.93L60.37 5.92L60.47 5.92L60.47 5.92Q61.28 4.76 62.94 4.76L62.94 4.76L62.94 4.76Q64.05 4.76 64.64 5.35L64.64 5.35L64.64 5.35Q65.24 5.95 65.24 7.27L65.24 7.27L65.24 12.29L64.01 12.29L64.01 7.35L64.01 7.35Q64.01 6.47 63.62 6.13L63.62 6.13L63.62 6.13Q63.22 5.78 62.48 5.78L62.48 5.78L62.48 5.78Q61.95 5.78 61.50 6.04L61.50 6.04L61.50 6.04Q61.05 6.30 60.79 6.79L60.79 6.79L60.79 6.79Q60.52 7.28 60.52 7.94L60.52 7.94L60.52 12.29L59.29 12.29ZM68.39 14.84L68.39 14.84Q67.58 14.84 66.98 14.43L66.98 14.43L66.98 14.43Q66.39 14.01 66.39 13.06L66.39 13.06L66.39 13.06Q66.39 11.91 67.58 11.49L67.58 11.49L67.58 11.49Q67.24 11.31 67.02 11.03L67.02 11.03L67.02 11.03Q66.81 10.74 66.81 10.36L66.81 10.36L66.81 10.36Q66.81 9.81 67.19 9.53L67.19 9.53L67.19 9.53Q67.58 9.25 68.04 9.14L68.04 9.14L68.04 9.14Q67.58 8.81 67.31 8.32L67.31 8.32L67.31 8.32Q67.05 7.83 67.05 7.24L67.05 7.24L67.05 7.24Q67.05 6.06 67.84 5.41L67.84 5.41L67.84 5.41Q68.64 4.76 70.03 4.76L70.03 4.76L70.03 4.76Q70.80 4.76 71.43 5.01L71.43 5.01L71.43 5.01Q72.34 4.58 72.49 3.74L72.49 3.74L73.67 3.74L73.67 3.74Q73.67 4.40 73.28 4.87L73.28 4.87L73.28 4.87Q72.90 5.35 72.24 5.50L72.24 5.50L72.24 5.50Q73.02 6.20 73.02 7.24L73.02 7.24L73.02 7.24Q73.02 8.41 72.22 9.06L72.22 9.06L72.22 9.06Q71.41 9.72 70.03 9.72L70.03 9.72L68.85 9.72L68.85 9.72Q68.47 9.72 68.27 9.88L68.27 9.88L68.27 9.88Q68.07 10.05 68.07 10.32L68.07 10.32L68.07 10.32Q68.07 10.58 68.27 10.75L68.27 10.75L68.27 10.75Q68.47 10.92 68.85 10.92L68.85 10.92L71.81 10.92L71.81 10.92Q72.67 10.92 73.18 11.45L73.18 11.45L73.18 11.45Q73.68 11.97 73.68 12.71L73.68 12.71L73.68 12.71Q73.68 13.24 73.44 13.73L73.44 13.73L73.44 13.73Q73.21 14.22 72.68 14.53L72.68 14.53L72.68 14.53Q72.16 14.84 71.36 14.84L71.36 14.84L68.39 14.84ZM70.04 8.76L70.04 8.76Q70.91 8.76 71.36 8.37L71.36 8.37L71.36 8.37Q71.81 7.97 71.81 7.24L71.81 7.24L71.81 7.24Q71.81 6.51 71.36 6.11L71.36 6.11L71.36 6.11Q70.91 5.71 70.04 5.71L70.04 5.71L70.04 5.71Q69.17 5.71 68.73 6.11L68.73 6.11L68.73 6.11Q68.28 6.51 68.28 7.24L68.28 7.24L68.28 7.24Q68.28 7.97 68.73 8.37L68.73 8.37L68.73 8.37Q69.17 8.76 70.04 8.76L70.04 8.76ZM68.50 13.85L71.39 13.85L71.39 13.85Q71.85 13.85 72.16 13.59L72.16 13.59L72.16 13.59Q72.46 13.34 72.46 12.92L72.46 12.92L72.46 12.92Q72.46 12.50 72.22 12.26L72.22 12.26L72.22 12.26Q71.97 12.01 71.57 12.01L71.57 12.01L68.50 12.01L68.50 12.01Q68.10 12.01 67.86 12.26L67.86 12.26L67.86 12.26Q67.62 12.50 67.62 12.92L67.62 12.92L67.62 12.92Q67.62 13.34 67.86 13.59L67.86 13.59L67.86 13.59Q68.10 13.85 68.50 13.85L68.50 13.85Z"></path></g><defs data-v-fde0c5aa=""><linearGradient data-v-fde0c5aa="" gradientTransform="rotate(25)" id="6d8ac5fc-7951-48f1-be82-ba16ba249127" x1="0%" y1="0%" x2="100%" y2="0%"><stop data-v-fde0c5aa="" offset="0%" stop-color="#E0302F" stop-opacity="1"></stop><stop data-v-fde0c5aa="" offset="100%" stop-color="#3281DD" stop-opacity="1"></stop></linearGradient></defs><g data-v-fde0c5aa="" id="01407369-bf99-4146-948f-79cfe36d9c4e" stroke="none" fill="url(#6d8ac5fc-7951-48f1-be82-ba16ba249127)" transform="matrix(1.3936484520336987,0,0,1.3936484520336987,36.05597498707157,127.70162476746083)"><path d="M2.83 18.247l26.34-9.124L2.83 0zM29.17 32V13.753L2.83 22.877z"></path></g><!----></svg>